<svg width="24" height="24" viewBox="0 0 24 24" fill="none" xmlns="http://www.w3.org/2000/svg">
<g clip-path="url(#clip0_145_48)">
<path d="M14 8H4.66667C4.48986 8 4.32029 7.92976 4.19526 7.80474C4.07024 7.67971 4 7.51014 4 7.33333V4.66667C4 4.48986 4.07024 4.32029 4.19526 4.19526C4.32029 4.07024 4.48986 4 4.66667 4H14C14.1768 4 14.3464 4.07024 14.4714 4.19526C14.5964 4.32029 14.6667 4.48986 14.6667 4.66667V7.33333C14.6667 7.51014 14.5964 7.67971 14.4714 7.80474C14.3464 7.92976 14.1768 8 14 8ZM5.33333 6.66667H13.3333V5.29333H5.33333V6.66667Z" fill="#283155"/>
<path d="M14 9.38672H4.66667C4.48986 9.38672 4.32029 9.45696 4.19526 9.58198C4.07024 9.70701 4 9.87657 4 10.0534V12.6667C4 12.8435 4.07024 13.0131 4.19526 13.1381C4.32029 13.2631 4.48986 13.3334 4.66667 13.3334H12.24L14.6667 10.8667V10.0534C14.6667 9.87657 14.5964 9.70701 14.4714 9.58198C14.3464 9.45696 14.1768 9.38672 14 9.38672ZM13.3333 12.0001H5.33333V10.6667H13.3333V12.0001Z" fill="#283155"/>
<path d="M7.37334 21.0067V20.9667L7.58668 20.04H2.66668V2.66671H16V9.50004L17.3333 8.24004V2.00004C17.3333 1.82323 17.2631 1.65366 17.1381 1.52864C17.0131 1.40361 16.8435 1.33337 16.6667 1.33337H2.00001C1.8232 1.33337 1.65363 1.40361 1.52861 1.52864C1.40358 1.65366 1.33334 1.82323 1.33334 2.00004V20.6667C1.33334 20.8435 1.40358 21.0131 1.52861 21.1381C1.65363 21.2631 1.8232 21.3334 2.00001 21.3334H7.33334C7.33884 21.2237 7.3522 21.1145 7.37334 21.0067Z" fill="#283155"/>
<path d="M14.6667 12.78L14.1467 13.3067C14.2757 13.2801 14.3939 13.2159 14.4865 13.1222C14.579 13.0284 14.6417 12.9094 14.6667 12.78Z" fill="#283155"/>
<path d="M4 17.96C4 18.1368 4.07024 18.3063 4.19526 18.4314C4.32029 18.5564 4.48986 18.6266 4.66667 18.6266H7.89333L8.09333 17.76L8.18 17.3933V17.36H5.33333V16H9.56L10.8933 14.6666H4.66667C4.48986 14.6666 4.32029 14.7369 4.19526 14.8619C4.07024 14.9869 4 15.1565 4 15.3333V17.96Z" fill="#283155"/>
<path d="M22.3267 11.1133L20.08 8.86668C19.9803 8.7667 19.8618 8.68738 19.7314 8.63325C19.601 8.57913 19.4612 8.55127 19.32 8.55127C19.1788 8.55127 19.039 8.57913 18.9086 8.63325C18.7781 8.68738 18.6597 8.7667 18.56 8.86668L9.41999 18.06L8.66665 21.2667C8.63845 21.405 8.63782 21.5476 8.66479 21.6862C8.69176 21.8247 8.74581 21.9566 8.82384 22.0743C8.90187 22.192 9.00235 22.2931 9.11951 22.3719C9.23668 22.4506 9.36824 22.5055 9.50665 22.5333C9.57537 22.5403 9.64461 22.5403 9.71332 22.5333C9.795 22.5467 9.8783 22.5467 9.95999 22.5333L13.1933 21.82L22.3267 12.6667C22.4264 12.5675 22.5056 12.4497 22.5596 12.3198C22.6137 12.1899 22.6415 12.0507 22.6415 11.91C22.6415 11.7694 22.6137 11.6301 22.5596 11.5002C22.5056 11.3704 22.4264 11.2525 22.3267 11.1533V11.1133ZM12.5133 20.6067L10.0733 21.1467L10.6667 18.7267L17.52 11.8L19.4 13.68L12.5133 20.6067ZM20.1533 12.9267L18.2733 11.0467L19.3333 10L21.2267 11.8933L20.1533 12.9267Z" fill="#283155"/>
</g>
<defs>
<clipPath id="clip0_145_48">
<rect width="24" height="24" fill="white"/>
</clipPath>
</defs>
</svg>
