<svg xmlns="http://www.w3.org/2000/svg" width="24" height="24" viewBox="0 0 24 24" fill="none">
  <path fill-rule="evenodd" clip-rule="evenodd" d="M7.34522 0.219537C7.11981 0.349314 6.85751 0.474313 6.76232 0.497246C6.66713 0.52018 6.38395 0.683402 6.13305 0.860061C5.88215 1.03666 4.67328 1.73034 3.44667 2.40156C2.22006 3.07278 0.999789 3.74298 0.734953 3.89091L0.253432 4.1599L0.44528 4.25731C0.559071 4.31506 0.657098 4.41635 0.68604 4.50618C0.715692 4.59803 0.734953 6.23185 0.734953 8.65259V12.6475L0.367476 12.665L0 12.6826V14.3548V16.0271L0.696938 16.0437L1.39388 16.0603V10.4462V4.83208L1.76135 5.03227C1.96349 5.14234 2.85871 5.63505 3.75079 6.1271C5.94267 7.33612 7.78168 8.32996 7.91691 8.37846C7.99861 8.40778 8.38175 8.22157 9.36147 7.6763C10.0948 7.26822 10.9531 6.79534 11.2687 6.62549C12.278 6.08243 15.6101 4.22219 15.6473 4.18099C15.6671 4.15913 15.4618 4.02284 15.1912 3.87813C14.2288 3.36351 12.6625 2.49436 12.0634 2.1426C11.7288 1.94617 11.2413 1.6785 10.9799 1.54776C10.7185 1.41709 10.3536 1.20269 10.169 1.0713C9.98425 0.939969 9.49102 0.652167 9.07286 0.431791C8.08184 -0.0905418 7.91843 -0.110609 7.34522 0.219537ZM19.5903 6.68049V8.41244H18.1211H16.652L16.6386 10.1295L16.6251 11.8465L15.1679 11.8623L13.7107 11.8782V13.6092V15.3402H12.2408H10.7709V17.0349V18.7295L10.6125 18.7668C10.5253 18.7874 9.86387 18.8041 9.14256 18.8041H7.83105V21.4021V24H15.9155H24V14.4743V4.94854H21.7951H19.5903V6.68049ZM3.57339 7.80327C3.57339 8.4045 3.5522 8.8913 3.52463 8.92379C3.46933 8.98894 3.67127 9.69833 3.83285 10.0065C4.08618 10.4897 4.81115 11.0916 5.48893 11.3815C5.90359 11.5588 7.23107 11.8167 7.7279 11.8164C8.33989 11.8161 9.65195 11.6484 10.0827 11.5154C10.5829 11.3611 11.0352 11.1202 11.4814 10.7708C11.8629 10.4719 12.0887 10.1751 12.2389 9.77513C12.3579 9.45812 12.4569 8.23059 12.4341 7.35589L12.4182 6.74726L11.8606 7.03333C11.554 7.1907 10.5792 7.72659 9.69448 8.22426C8.80975 8.72192 8.03009 9.12911 7.96187 9.12911C7.89364 9.12911 6.88595 8.59161 5.72249 7.93466C4.55909 7.27771 3.59959 6.74021 3.59032 6.74021C3.58099 6.74021 3.57339 7.21859 3.57339 7.80327Z" fill="#283155"/>
</svg>