<svg xmlns="http://www.w3.org/2000/svg" width="32" height="32" viewBox="0 0 32 32" fill="none">
  <path d="M24 7.99996C23.2667 7.99996 22.6387 7.73863 22.116 7.21596C21.5933 6.6933 21.3324 6.06574 21.3333 5.33329C21.3333 4.59996 21.5947 3.97196 22.1173 3.44929C22.64 2.92663 23.2675 2.66574 24 2.66663C24.7333 2.66663 25.3613 2.92796 25.884 3.45063C26.4067 3.97329 26.6675 4.60085 26.6667 5.33329C26.6667 6.06663 26.4053 6.69463 25.8827 7.2173C25.36 7.73996 24.7324 8.00085 24 7.99996ZM22.6667 29.3333V14.6H20.2333L22 9.3333H26L30 21.3333H26.6667V29.3333H22.6667ZM16.6667 15.3333C16.1111 15.3333 15.6387 15.1386 15.2493 14.7493C14.86 14.36 14.6658 13.888 14.6667 13.3333C14.6667 12.7777 14.8613 12.3053 15.2507 11.916C15.64 11.5266 16.112 11.3324 16.6667 11.3333C17.2222 11.3333 17.6947 11.528 18.084 11.9173C18.4733 12.3066 18.6675 12.7786 18.6667 13.3333C18.6667 13.8889 18.472 14.3613 18.0827 14.7506C17.6933 15.14 17.2213 15.3342 16.6667 15.3333ZM7.33332 7.99996C6.59999 7.99996 5.97199 7.73863 5.44932 7.21596C4.92666 6.6933 4.66577 6.06574 4.66666 5.33329C4.66666 4.59996 4.92799 3.97196 5.45066 3.44929C5.97332 2.92663 6.60088 2.66574 7.33332 2.66663C8.06666 2.66663 8.69466 2.92796 9.21732 3.45063C9.73999 3.97329 10.0009 4.60085 9.99999 5.33329C9.99999 6.06663 9.73866 6.69463 9.21599 7.2173C8.69332 7.73996 8.06577 8.00085 7.33332 7.99996ZM4.66666 29.3333V20H2.66666V9.3333H12V20H9.99999V29.3333H4.66666ZM14.6667 29.3333V24H13.3333V16.6666H20V24H18.6667V29.3333H14.6667Z" fill="#96C1FD"/>
</svg>