<svg width="24" height="24" viewBox="0 0 24 24" fill="none" xmlns="http://www.w3.org/2000/svg">
<path d="M12.9252 3.00111C13.5819 2.99859 14.2387 3.00519 14.8952 3.02091L15.0698 3.02721C15.2714 3.03441 15.4703 3.04341 15.7106 3.05421C16.6681 3.0992 17.3215 3.2504 17.8948 3.47269C18.4887 3.70128 18.9891 4.01087 19.4895 4.51126C19.947 4.96089 20.3011 5.50477 20.5271 6.1051C20.7494 6.67838 20.9006 7.33266 20.9456 8.29023C20.9564 8.52962 20.9654 8.72941 20.9726 8.93101L20.978 9.1056C20.994 9.76185 21.0009 10.4183 20.9987 11.0747L20.9996 11.7461V12.9251C21.0018 13.5818 20.9949 14.2386 20.9789 14.8951L20.9735 15.0697C20.9663 15.2713 20.9573 15.4702 20.9465 15.7105C20.9015 16.668 20.7485 17.3214 20.5271 17.8947C20.3018 18.4957 19.9476 19.04 19.4895 19.4894C19.0395 19.9469 18.4953 20.301 17.8948 20.5271C17.3215 20.7494 16.6681 20.9006 15.7106 20.9456C15.4703 20.9564 15.2714 20.9654 15.0698 20.9726L14.8952 20.978C14.2387 20.994 13.5819 21.0009 12.9252 20.9987L12.2538 20.9996H11.0758C10.4191 21.0018 9.76235 20.9949 9.10581 20.9789L8.93122 20.9735C8.71758 20.9658 8.50398 20.9568 8.29045 20.9465C7.3329 20.9015 6.67953 20.7485 6.10536 20.5271C5.50481 20.3015 4.96083 19.9474 4.51154 19.4894C4.05351 19.0397 3.69909 18.4955 3.473 17.8947C3.25071 17.3214 3.09951 16.668 3.05452 15.7105C3.04449 15.4969 3.03549 15.2833 3.02752 15.0697L3.02302 14.8951C3.00643 14.2386 2.99893 13.5818 3.00052 12.9251V11.0747C2.99801 10.4183 3.00461 9.76185 3.02032 9.1056L3.02662 8.93101C3.03382 8.72941 3.04282 8.52962 3.05362 8.29023C3.09861 7.33176 3.24981 6.67928 3.4721 6.1051C3.69832 5.50448 4.05343 4.96074 4.51244 4.51216C4.96142 4.05385 5.50506 3.6991 6.10536 3.47269C6.67953 3.2504 7.332 3.0992 8.29045 3.05421L8.93122 3.02721L9.10581 3.02271C9.76204 3.00612 10.4185 2.99862 11.0749 3.00021L12.9252 3.00111ZM12.0001 7.50095C11.4038 7.49252 10.8119 7.60267 10.2586 7.825C9.70535 8.04734 9.20178 8.37742 8.77718 8.79606C8.35258 9.2147 8.01542 9.71356 7.78529 10.2636C7.55516 10.8137 7.43665 11.4041 7.43665 12.0004C7.43665 12.5966 7.55516 13.187 7.78529 13.7371C8.01542 14.2871 8.35258 14.786 8.77718 15.2046C9.20178 15.6233 9.70535 15.9534 10.2586 16.1757C10.8119 16.398 11.4038 16.5082 12.0001 16.4997C13.1935 16.4997 14.338 16.0257 15.1819 15.1818C16.0257 14.3379 16.4998 13.1933 16.4998 11.9999C16.4998 10.8065 16.0257 9.66191 15.1819 8.81803C14.338 7.97414 13.1935 7.50095 12.0001 7.50095ZM12.0001 9.30089C12.3587 9.29428 12.7151 9.35921 13.0483 9.49187C13.3816 9.62454 13.6851 9.82228 13.9411 10.0736C14.197 10.3248 14.4004 10.6246 14.5392 10.9553C14.6781 11.2861 14.7496 11.6412 14.7497 11.9999C14.7497 12.3586 14.6783 12.7137 14.5396 13.0445C14.4009 13.3753 14.1976 13.6751 13.9417 13.9265C13.6858 14.1779 13.3824 14.3757 13.0492 14.5085C12.7159 14.6413 12.3596 14.7063 12.001 14.6998C11.2849 14.6998 10.5982 14.4154 10.0919 13.909C9.58555 13.4027 9.3011 12.716 9.3011 11.9999C9.3011 11.2838 9.58555 10.5971 10.0919 10.0908C10.5982 9.58445 11.2849 9.29999 12.001 9.29999L12.0001 9.30089ZM16.7248 6.151C16.4345 6.16262 16.1599 6.28613 15.9586 6.49566C15.7573 6.70519 15.6449 6.98449 15.6449 7.27506C15.6449 7.56563 15.7573 7.84493 15.9586 8.05446C16.1599 8.26399 16.4345 8.3875 16.7248 8.39912C17.0232 8.39912 17.3093 8.2806 17.5203 8.06963C17.7312 7.85866 17.8498 7.57252 17.8498 7.27416C17.8498 6.9758 17.7312 6.68967 17.5203 6.47869C17.3093 6.26772 17.0232 6.1492 16.7248 6.1492V6.151Z" fill="white"/>
</svg>
