<svg width="24" height="24" viewBox="0 0 24 24" fill="none" xmlns="http://www.w3.org/2000/svg">
<path d="M21 6.26471C20.3375 6.57353 19.6233 6.77647 18.8834 6.87353C19.6405 6.40588 20.2256 5.66471 20.501 4.77353C19.7868 5.21471 18.9952 5.52353 18.1606 5.7C17.4809 4.94118 16.5258 4.5 15.4417 4.5C13.4197 4.5 11.7677 6.19412 11.7677 8.28529C11.7677 8.58529 11.8021 8.87647 11.8623 9.15C8.79924 8.99118 6.0717 7.48235 4.25621 5.19706C3.93786 5.75294 3.75717 6.40588 3.75717 7.09412C3.75717 8.40882 4.40249 9.57353 5.40057 10.2353C4.78967 10.2353 4.2218 10.0588 3.72275 9.79412V9.82059C3.72275 11.6559 4.99618 13.1912 6.6826 13.5353C6.14116 13.6872 5.57274 13.7084 5.02199 13.5971C5.25568 14.3492 5.71337 15.0074 6.3307 15.4791C6.94804 15.9507 7.69398 16.2121 8.46367 16.2265C7.15896 17.2857 5.54168 17.8582 3.87763 17.85C3.58509 17.85 3.29254 17.8324 3 17.7971C4.6348 18.8735 6.57935 19.5 8.66157 19.5C15.4417 19.5 19.1673 13.7294 19.1673 8.72647C19.1673 8.55882 19.1673 8.4 19.1587 8.23235C19.8815 7.70294 20.501 7.03235 21 6.26471Z" fill="white"/>
</svg>
